# xmcd
#
# Track frame offsets: 
#        150
#        18231
#        34186
#        57639
#        72279
#        86698
#        107845
#        123465
#        139119
#        156682
#        169158
#
# Disc length: 2436 seconds
#
# Revision: 1
# Processed by: cddbd v1.5.2PL0 Copyright (c) Steve Scherf et al.
# Submitted via: ExactAudioCopyFreeDBPlugin 1.0
#
DISCID=9f09820b
DTITLE=Muddy Waters - Folk Singer - AP SACD
DYEAR=1963
DGENRE=Blues
TTITLE0=My Home is in the Delta
TTITLE1=Long Distance
TTITLE2=My Captain
TTITLE3=Good Morning School Girl
TTITLE4=You Gonna Need my Help
TTITLE5=Cold Weather Blues
TTITLE6=Big Leg Woman
TTITLE7=Country Boy
TTITLE8=Feel Like Going Home
TTITLE9=The Same Thing (bonus)
TTITLE10=You Can't Lose What You Aint' Never Had (bonus)
EXTD=
EXTT0=
EXTT1=
EXTT2=
EXTT3=
EXTT4=
EXTT5=
EXTT6=
EXTT7=
EXTT8=
EXTT9=
EXTT10=
PLAYORDER=
